<?xml version="1.0" encoding="UTF-8" standalone="no"?>
<svg width="386px" height="386px" viewBox="0 0 386 386" version="1.1" xmlns="http://www.w3.org/2000/svg" xmlns:xlink="http://www.w3.org/1999/xlink" xmlns:sketch="http://www.bohemiancoding.com/sketch/ns">
    <title>Slice 1</title>
    <description>Created with Sketch (http://www.bohemiancoding.com/sketch)</description>
    <defs></defs>
    <g id="Page-1" stroke="none" stroke-width="1" fill="none" fill-rule="evenodd" sketch:type="MSPage">
        <g id="close-round" sketch:type="MSLayerGroup" transform="translate(1.000000, 1.000000)" stroke="#979797" fill="#000000">
            <path d="M373.5,322.6 L242.9,192 L373.5,61.4 C387.6,47.3 387.6,24.6 373.5,10.5 C359.4,-3.6 336.7,-3.6 322.6,10.5 L192,141.1 L61.4,10.5 C47.3,-3.6 24.6,-3.6 10.5,10.5 C-3.6,24.6 -3.6,47.3 10.5,61.4 L141.1,192 L10.5,322.6 C-3.6,336.7 -3.6,359.4 10.5,373.5 C24.6,387.6 47.3,387.6 61.4,373.5 L192,242.9 L322.6,373.5 C336.7,387.6 359.4,387.6 373.5,373.5 C387.5,359.4 387.5,336.6 373.5,322.6 L373.5,322.6 Z" id="Shape" sketch:type="MSShapeGroup"></path>
        </g>
    </g>
</svg>