<?xml version="1.0" encoding="UTF-8" standalone="no"?>
<svg width="50px" height="50px" viewBox="0 0 50 50" version="1.1" xmlns="http://www.w3.org/2000/svg" xmlns:xlink="http://www.w3.org/1999/xlink" xmlns:sketch="http://www.bohemiancoding.com/sketch/ns">
    <title>Travel Captions Logo</title>
    <g id="Page-1" stroke="none" stroke-width="1" fill="none" fill-rule="evenodd" sketch:type="MSPage">
        <g id="Small" sketch:type="MSLayerGroup">
            <rect id="Rectangle-1" fill="#000000" sketch:type="MSShapeGroup" x="0" y="0" width="50" height="50" rx="8"></rect>
            <path d="M20.45,12.65 C20.05,12.65 19.7,13.05 19.4,13.65 C19.2,14 19,14.05 18.6,14 C16.8,13.85 14.55,13.65 12.3,13.65 C10,13.65 8.3,14.05 7.6,15.2 C7.2,15.95 7.2,16.9 7.6,18.05 C7.85,18.65 8.25,18.65 8.4,18.15 C8.8,16.8 9.5,16.05 11.6,16 C13.95,15.95 16.8,16.05 18,16.25 C18.35,16.25 18.4,16.35 18.25,16.85 C16.25,22.7 14.15,29.8 12.8,32.95 C12.65,33.45 12.45,33.65 12.05,33.7 C11.15,33.95 9.6,34.45 9.6,35.75 C9.6,36.5 10.45,37.15 11.1,37.15 C11.8,37.15 13,36.3 13.45,36 C13.7,35.85 13.85,35.75 14.35,35.75 C15.7,35.7 18.65,35.45 19.55,34.9 C20.15,34.55 20.2,34.2 19.45,34 C18.65,33.8 16.5,33.55 15.65,33.5 C15.3,33.5 15.15,33.45 15.35,33.05 C16.9,29.15 19.35,22.25 21.4,16.85 C21.65,16.3 21.85,16.1 22.25,16.1 C23.7,16.15 25.35,16.2 26.85,16.15 C27.55,16.1 27.85,16.2 28.35,16.4 C28.8,16.6 29.5,17 30,17 C30.95,17 31.85,16.1 31.85,15.25 C31.85,14.1 30.85,13 30.05,13 C29.8,13 29.55,13.15 29.35,13.4 C29,13.8 28.55,14.4 27.7,14.4 C26.7,14.4 24.5,14.35 22.75,14.2 C22.15,14.15 22,14.05 21.75,13.7 C21.3,13.1 20.9,12.65 20.5,12.65 L20.45,12.65 Z M40.103125,12.45 C39.053125,12.45 37.953125,12.65 36.403125,13.4 C29.903125,16.45 25.103125,24.5 25.103125,30.4 C25.103125,33.55 26.403125,36.6 29.803125,36.6 C32.153125,36.6 34.603125,35.8 37.103125,34.35 C40.653125,32.4 42.953125,30.1 43.353125,29.3 C43.703125,28.5 43.403125,28 42.653125,28.6 C41.553125,29.45 35.953125,33.95 31.153125,33.95 C29.253125,33.95 28.053125,32.8 28.053125,30.45 C28.053125,26.6 30.153125,22.55 32.453125,19.5 C34.353125,17.15 37.203125,15 39.353125,15 C40.103125,15 40.403125,15.4 40.403125,15.7 C40.403125,16 40.353125,16.1 40.203125,16.45 C40.103125,16.7 40.053125,17.05 40.653125,16.95 C41.153125,16.85 42.803125,16.05 42.803125,14.6 C42.803125,13.1 41.403125,12.45 40.153125,12.45 L40.103125,12.45 Z" id="TC" fill="#FFFFFF" sketch:type="MSShapeGroup"></path>
        </g>
    </g>
</svg>