<?xml version="1.0" encoding="UTF-8" standalone="no"?>
<svg width="50px" height="50px" viewBox="0 0 50 50" version="1.1" xmlns="http://www.w3.org/2000/svg" xmlns:xlink="http://www.w3.org/1999/xlink" xmlns:sketch="http://www.bohemiancoding.com/sketch/ns">
    <title>logo</title>
    <description>Logo</description>
    <defs></defs>
    <g id="Page-1" stroke="none" stroke-width="1" fill="none" fill-rule="evenodd" sketch:type="MSPage">
        <g id="Small" sketch:type="MSLayerGroup">
            <rect id="Rectangle-1" fill="#000000" sketch:type="MSShapeGroup" x="0" y="0" width="50" height="50" rx="8"></rect>
            <path d="M15.11,36 L18.98,36 L18.98,18.03 L25.97,18.03 L25.97,14.7 L8.12,14.7 L8.12,18.03 L15.11,18.03 L15.11,36 Z M24.561875,25.26 C24.561875,31.53 29.061875,36.36 35.571875,36.36 C41.001875,36.36 43.941875,32.91 43.941875,32.91 L41.901875,30.12 C41.901875,30.12 39.411875,32.82 35.721875,32.82 C31.281875,32.82 28.551875,29.25 28.551875,25.2 C28.551875,21.24 31.191875,17.88 35.691875,17.88 C39.081875,17.88 41.511875,20.13 41.511875,20.13 L43.371875,17.25 C43.371875,17.25 40.701875,14.34 35.511875,14.34 C29.241875,14.34 24.561875,19.08 24.561875,25.26 Z" id="TC" fill="#FFFFFF" sketch:type="MSShapeGroup"></path>
        </g>
    </g>
</svg>