<?xml version="1.0" encoding="utf-8"?>
<!-- Generator: Adobe Illustrator 16.0.0, SVG Export Plug-In . SVG Version: 6.00 Build 0)  -->
<!DOCTYPE svg PUBLIC "-//W3C//DTD SVG 1.1//EN" "http://www.w3.org/Graphics/SVG/1.1/DTD/svg11.dtd">
<svg version="1.1" id="Icon" xmlns="http://www.w3.org/2000/svg" xmlns:xlink="http://www.w3.org/1999/xlink" x="0px" y="0px"
	 width="300px" height="300px" viewBox="0 0 300 300" enable-background="new 0 0 300 300" xml:space="preserve">
<linearGradient id="SVGID_1_" gradientUnits="userSpaceOnUse" x1="49.3799" y1="261.2197" x2="49.3799" y2="213.2197" gradientTransform="matrix(6.25 0 0 -6.25 -158.625 1632.625)">
	<stop  offset="0" style="stop-color:#ACACAC"/>
	<stop  offset="1" style="stop-color:#898989"/>
</linearGradient>
<path fill="url(#SVGID_1_)" d="M300,262.5c0,20.706-16.794,37.5-37.5,37.5h-225C16.794,300,0,283.206,0,262.5v-225
	C0,16.794,16.794,0,37.5,0h225C283.206,0,300,16.794,300,37.5V262.5z"/>
<path fill="#898989" d="M251.443,83.831c-7,3.106-14.519,5.207-22.425,6.15c8.069-4.838,14.25-12.488,17.169-21.606
	c-7.537,4.475-15.894,7.725-24.8,9.475c-7.119-7.587-17.269-12.325-28.5-12.325c-21.557,0-39.038,17.475-39.038,39.044
	c0,3.062,0.344,6.038,1.007,8.9c-32.45-1.631-61.219-17.181-80.475-40.8c-3.363,5.769-5.288,12.475-5.288,19.631
	c0,13.544,6.894,25.5,17.369,32.494c-6.4-0.2-12.418-1.957-17.688-4.881c0,0.163,0,0.331,0,0.494
	c0,18.913,13.457,34.693,31.319,38.281c-3.281,0.894-6.725,1.369-10.288,1.369c-2.519,0-4.962-0.238-7.35-0.688
	c4.969,15.5,19.388,26.793,36.469,27.112c-13.362,10.469-30.2,16.719-48.487,16.719c-3.15,0-6.263-0.188-9.319-0.557
	c17.281,11.081,37.8,17.55,59.85,17.55c71.812,0,111.088-59.493,111.088-111.087c0-1.694-0.038-3.375-0.119-5.057
	C239.588,98.538,246.213,91.663,251.443,83.831z"/>
<path fill="#FFFFFF" d="M251.443,92.119c-7,3.106-14.519,5.207-22.425,6.15c8.069-4.831,14.25-12.487,17.169-21.6
	c-7.537,4.475-15.894,7.725-24.8,9.475c-7.119-7.587-17.269-12.325-28.5-12.325c-21.557,0-39.038,17.475-39.038,39.043
	c0,3.057,0.344,6.038,1.007,8.9c-32.45-1.631-61.219-17.175-80.475-40.794c-3.363,5.769-5.288,12.475-5.288,19.631
	c0,13.543,6.894,25.494,17.369,32.494c-6.4-0.2-12.418-1.956-17.688-4.881c0,0.163,0,0.325,0,0.494
	c0,18.919,13.457,34.694,31.319,38.281c-3.281,0.9-6.725,1.369-10.288,1.369c-2.519,0-4.962-0.237-7.35-0.688
	c4.969,15.506,19.388,26.794,36.469,27.112c-13.362,10.475-30.2,16.719-48.487,16.719c-3.15,0-6.263-0.188-9.319-0.557
	c17.281,11.082,37.8,17.551,59.85,17.551c71.812,0,111.088-59.494,111.088-111.088c0-1.694-0.038-3.375-0.119-5.05
	C239.588,106.825,246.213,99.95,251.443,92.119z"/>
</svg>
